<?xml version="1.0" standalone="yes"?>
<svg xmlns="http://www.w3.org/2000/svg" width="500" height="500">
<path style="fill:#060606; stroke:none;" d="M0 0L0 500L500 500L500 0L0 0z"/>
<path style="fill:#9e701d; stroke:none;" d="M198 49L198 50L202 50L198 49M224 49L224 50L228 50L224 49M188.667 50.3333L189.333 50.6667L188.667 50.3333M237.667 50.3333L238.333 50.6667L237.667 50.3333M181 51L182 52L181 51M244.667 51.3333L245.333 51.6667L244.667 51.3333M175 52L176 53L175 52M250.667 52.3333L251.333 52.6667L250.667 52.3333M170 53L171 54L170 53M255.667 53.3333L256.333 53.6667L255.667 53.3333M166 54L167 55L166 54M260 54L261 55L260 54M162 55L163 56L162 55M264 55L265 56L264 55M158 56L159 57L158 56M268 56L269 57L268 56M154 57L155 58L154 57M271 57L272 58L271 57M151 58L152 59L151 58M275 58L276 59L275 58M148 59L149 60L148 59M278 59L279 60L278 59M145 60L146 61L145 60M281 60L282 61L281 60M142 61L143 62L142 61M286 62L287 63L286 62M137 63L138 64L137 63M289 63L290 64L289 63M291 64L292 65L291 64M132 65L133 66L132 65M130 66L131 67L130 66M296 66L297 67L296 66M298 67L299 68L298 67M211 70L211 71L216 71L211 70M194 71L194 72L203 72L194 71z"/>
<path style="fill:#e6a52f; stroke:none;" d="M236 436C225.844 421.583 210.44 409.5 198.001 397C183.187 382.114 169.653 365.263 153.985 351.289C137.801 336.855 119.438 326.905 108.89 307C99.5419 289.361 101.884 273.538 99.8125 255C98.8593 246.471 86.6299 239.874 83.4792 231.09C80.1011 221.671 89.5522 216.892 91.0756 209C92.6759 200.71 84.9061 192.771 87.6528 184C90.9622 173.431 105.293 164.04 114 158.025C138.157 141.337 165.699 121.778 197 126.3C210.128 128.197 217.807 143.022 230 144.631C239.993 145.95 250.122 136.505 260 138.829C272.628 141.799 283.92 152.814 294 160.373C306.975 170.105 320.122 180.03 332 191.09C350.429 208.249 370.046 228.175 395 235C394.8 210.843 384.679 184.69 372.85 164C309.96 54.0067 152.253 40.0098 71.615 138C57.6008 155.03 46.5695 175.044 39.6705 196C32.9771 216.331 28.8007 239.659 30.8302 261C33.5799 289.913 38.4895 316.12 52.6944 342C68.5926 370.965 91.7218 394.721 120 411.796C156.788 434.011 194.483 436.344 236 436z"/>
<path style="fill:#9e701d; stroke:none;" d="M223 71L223 72L232 72L223 71M187 72L187 73L192 73L187 72M235 72L235 73L240 73L235 72M181 73L181 74L184 74L181 73M242 73L242 74L246 74L242 73M310 73L311 74L310 73M175 74L175 75L179 75L175 74M248 74L248 75L251 75L248 74M312 74L313 75L312 74M112 75L113 76L112 75M171 75L171 76L174 76L171 75M253 75L253 76L256 76L253 75M314 75L315 76L314 75M110 76L111 77L110 76M167 76L167 77L170 77L167 76M257 76L257 77L260 77L257 76M163 77L163 78L166 78L163 77M261.667 77.3333L262.333 77.6667L261.667 77.3333M107 78L108 79L107 78M160.667 78.3333L161.333 78.6667L160.667 78.3333M265.667 78.3333L266.333 78.6667L265.667 78.3333M319 78L320 79L319 78M157.667 79.3333L158.333 79.6667L157.667 79.3333M268.667 79.3333L269.333 79.6667L268.667 79.3333M154.667 80.3333L155.333 80.6667L154.667 80.3333M271.667 80.3333L272.333 80.6667L271.667 80.3333M322 80L323 81L322 80M102 81L103 82L102 81M151.667 81.3333L152.333 81.6667L151.667 81.3333M274.667 81.3333L275.333 81.6667L274.667 81.3333M148.667 82.3333L149.333 82.6667L148.667 82.3333M277 82L278 83L277 82M99 83L100 84L99 83M146 83L147 84L146 83M279.667 83.3333L280.333 83.6667L279.667 83.3333M143.667 84.3333L144.333 84.6667L143.667 84.3333M282.667 84.3333L283.333 84.6667L282.667 84.3333M96 85L97 86L96 85M141 85L142 86L141 85M284.667 85.3333L285.333 85.6667L284.667 85.3333M139 86L140 87L139 86M287 86L288 87L287 86M331 86L332 87L331 86M136.667 87.3333L137.333 87.6667L136.667 87.3333M289 87L290 88L289 87M92 88L93 89L92 88M134.667 88.3333L135.333 88.6667L134.667 88.3333M291.667 88.3333L292.333 88.6667L291.667 88.3333M334 88L335 89L334 88M132 89L133 90L132 89M293.667 89.3333L294.333 89.6667L293.667 89.3333M89 90L88 92L89 90M130 90L131 91L130 90M295.667 90.3333L296.333 90.6667L295.667 90.3333M128 91L129 92L128 91M297 91L298 92L297 91M338 91L340 93L338 91M126.667 92.3333L127.333 92.6667L126.667 92.3333M299 92L300 93L299 92M125 93L126 94L125 93M301 93L302 94L301 93M84 94L83 96L84 94M123 94L124 95L123 94M303 94L304 95L303 94M121 95L122 96L121 95M305 95L306 96L305 95M343 95L345 97L343 95M119 96L120 97L119 96M306 96L307 97L306 96M118 97L119 98L118 97M308 97L309 98L308 97M79 98L76 102L79 98M116 98L117 99L116 98M310 98L311 99L310 98M115 99L116 100L115 99M311 99L312 100L311 99M113 100L114 101L113 100M313 100L314 101L313 100M349 100L354 105L349 100M112 101L113 102L112 101M314 101L315 102L314 101M110 102L111 103L110 102M316 102L317 103L316 102M109 103L110 104L109 103M317 103L318 104L317 103M107 104L108 105L107 104M319 104L320 105L319 104M106 105L107 106L106 105M320 105L321 106L320 105M104 106L105 107L104 106M321 106L322 107L321 106M103 107L104 108L103 107M323 107L324 108L323 107M102 108L103 109L102 108M324 108L325 109L324 108M325 109L326 110L325 109M99 110L100 111L99 110M327 110L328 111L327 110M98 111L99 112L98 111M328 111L329 112L328 111M97 112L98 113L97 112M329 112L330 113L329 112M330 113L331 114L330 113M94 114L95 115L94 114M363 114L368 119L363 114M93 115L94 116L93 115M333 115L334 116L333 115M92 116L93 117L92 116M334 116L335 117L334 116M60 117L58 120L60 117M91 117L92 118L91 117M335 117L336 118L335 117M90 118L91 119L90 118M336 118L337 119L336 118M89 119L90 120L89 119M337 119L338 120L337 119M88 120L89 121L88 120M338 120L339 121L338 120M339 121L340 122L339 121M340 122L341 123L340 122M341 123L342 124L341 123M371 123L373 125L371 123M54 124L53 126L54 124M342 124L343 125L342 124M343 125L344 126L343 125M183 126L183 127L191 127L183 126M192 126L192 127L199 127L192 126M344 126L345 127L344 126M176 127L176 128L179 128L176 127M201.667 127.333L202.333 127.667L201.667 127.333M345 127L346 128L345 127M170.667 128.333L171.333 128.667L170.667 128.333M204.667 128.333L205.333 128.667L204.667 128.333M346 128L347 129L346 128M375 128L376 129L375 128M50 129L51 130L50 129M79 129L80 130L79 129M165.667 129.333L166.333 129.667L165.667 129.333M347 129L348 130L347 129M78 130L79 131L78 130M161.667 130.333L162.333 130.667L161.667 130.333M208 130L209 131L208 130M348 130L349 131L348 130M77 131L78 132L77 131M158 131L159 132L158 131M210 131L211 132L210 131M349 131L350 132L349 131M76 132L77 133L76 132M154.667 132.333L155.333 132.667L154.667 132.333M211 132L212 133L211 132M350 132L351 133L350 132M378 132L379 133L378 132M47 133L48 134L47 133M75 133L76 134L75 133M152 133L153 134L152 133M212 133L213 134L212 133M351 133L352 134L351 133M74 134L75 135L74 134M150 134L151 135L150 134M214 134L215 135L214 134M73 135L74 136L73 135M148 135L149 136L148 135M215 135L216 136L215 135M216 136L217 137L216 136M353 136L354 137L353 136M381 136L382 137L381 136M44 137L45 138L44 137M145 137L146 138L145 137M180.667 137.333L181.333 137.667L180.667 137.333z"/>
<path style="fill:#acacac; stroke:none;" d="M182 137L182 138L185 138L182 137z"/>
<path style="fill:#ffffff; stroke:none;" d="M448 281C444.233 272.927 435.231 267.762 428 263.003C407.328 249.4 382.43 243.907 361 231.572C336.078 217.226 314.5 193.764 293 174.845C283.272 166.285 272.207 155.662 260 150.836C247.757 145.997 233.145 160.158 220 156.566C211.359 154.205 208.621 143.291 201 139.14C184.354 130.073 156.012 142.849 142 151.576C130.715 158.606 119.326 165.862 109 174.261C105.178 177.369 99.5301 180.972 98.1474 186C95.8338 194.413 104.743 200.469 105.433 208C106.152 215.846 93.0066 217.743 94.3765 225.996C95.1631 230.735 99.9932 233.306 104 230.653C120.311 219.85 134.905 199.321 156 197.34C172.643 195.778 165.973 216.448 177.015 219.566C196.856 225.169 214.929 204.813 235 213.533C255.125 222.277 248.18 242.492 243.59 258C242.156 262.847 238.496 272.959 242.603 277.298C247.28 282.239 258.069 284.401 264 288.355C289.246 305.184 324.812 314.875 355 308.338C372.21 304.611 383.354 293.637 399 287.465C414.298 281.43 431.927 282.268 448 281z"/>
<path style="fill:#acacac; stroke:none;" d="M196.667 137.333L197.333 137.667L196.667 137.333z"/>
<path style="fill:#9e701d; stroke:none;" d="M198 137L199 138L198 137M218 137L219 138L218 137M354 137L355 138L354 137M71 138L72 139L71 138M143 138L144 139L143 138M173.667 138.333L174.333 138.667L173.667 138.333z"/>
<path style="fill:#acacac; stroke:none;" d="M175.667 138.333L176.333 138.667L175.667 138.333z"/>
<path style="fill:#9e701d; stroke:none;" d="M200 138L201 139L200 138M219 138L220 139L219 138M255 138L256 139L255 138M259 138L260 139L259 138M355 138L356 139L355 138M70 139L71 140L70 139M168 139L169 140L168 139z"/>
<path style="fill:#acacac; stroke:none;" d="M169.667 139.333L170.333 139.667L169.667 139.333z"/>
<path style="fill:#9e701d; stroke:none;" d="M202 139L203 140L202 139M220 139L221 140L220 139M252 139L253 140L252 139M261.667 139.333L262.333 139.667L261.667 139.333M356 139L357 140L356 139M383 139L384 140L383 139M42 140L43 141L42 140M69 140L70 141L69 140M140 140L141 141L140 140M164 140L165 141L164 140z"/>
<path style="fill:#acacac; stroke:none;" d="M165 140L166 141L165 140M203 140L204 141L203 140z"/>
<path style="fill:#9e701d; stroke:none;" d="M222 140L223 141L222 140M248.667 140.333L249.333 140.667L248.667 140.333M264 140L265 141L264 140M160 141L161 142L160 141z"/>
<path style="fill:#acacac; stroke:none;" d="M161 141L162 142L161 141M204 141L205 142L204 141z"/>
<path style="fill:#9e701d; stroke:none;" d="M223 141L224 142L223 141M245.667 141.333L246.333 141.667L245.667 141.333M266 141L267 142L266 141M137 142L138 143L137 142z"/>
<path style="fill:#acacac; stroke:none;" d="M157 142L158 143L157 142M205 142L206 143L205 142z"/>
<path style="fill:#9e701d; stroke:none;" d="M224 142L225 143L224 142M241.667 142.333L242.333 142.667L241.667 142.333M268 142L269 143L268 142M358 142L359 143L358 142M385 142L386 143L385 142M40 143L41 144L40 143M67 143L68 144L67 143M135 143L136 144L135 143z"/>
<path style="fill:#acacac; stroke:none;" d="M155 143L156 144L155 143M206 143L207 144L206 143z"/>
<path style="fill:#9e701d; stroke:none;" d="M226 143L227 144L226 143M237.667 143.333L238.333 143.667L237.667 143.333M270 143L271 144L270 143M359 143L360 144L359 143M66 144L67 145L66 144z"/>
<path style="fill:#acacac; stroke:none;" d="M153 144L154 145L153 144M207 144L208 145L207 144z"/>
<path style="fill:#9e701d; stroke:none;" d="M227 144L228 145L227 144M233.667 144.333L234.333 144.667L233.667 144.333M272 144L273 145L272 144M132 145L133 146L132 145M151 145L152 146L151 145M208 145L209 146L208 145M228 145L228 146L231 146L228 145M273 145L274 146L273 145M387 145L388 146L387 145z"/>
<path style="fill:#acacac; stroke:none;" d="M150 146L151 147L150 146z"/>
<path style="fill:#9e701d; stroke:none;" d="M275 146L276 147L275 146M361 146L362 147L361 146M64 147L65 148L64 147M129 147L130 148L129 147z"/>
<path style="fill:#acacac; stroke:none;" d="M148 147L149 148L148 147M209 147L210 148L209 147z"/>
<path style="fill:#9e701d; stroke:none;" d="M276 147L277 148L276 147M362 147L363 148L362 147M37 148L38 149L37 148M63 148L64 149L63 148M146 148L147 149L146 148M210 148L211 149L210 148M278 148L279 149L278 148M126 149L127 150L126 149z"/>
<path style="fill:#acacac; stroke:none;" d="M145 149L146 150L145 149z"/>
<path style="fill:#9e701d; stroke:none;" d="M254 149L255 150L254 149z"/>
<path style="fill:#acacac; stroke:none;" d="M255 149L256 150L255 149z"/>
<path style="fill:#9e701d; stroke:none;" d="M257 149L258 150L257 149M279 149L280 150L279 149M363 149L364 150L363 149M62 150L63 151L62 150M124 150L125 151L124 150M143 150L144 151L143 150z"/>
<path style="fill:#acacac; stroke:none;" d="M211 150L212 151L211 150z"/>
<path style="fill:#9e701d; stroke:none;" d="M251 150L252 151L251 150z"/>
<path style="fill:#acacac; stroke:none;" d="M252 150L253 151L252 150M259 150L260 151L259 150z"/>
<path style="fill:#9e701d; stroke:none;" d="M280 150L281 151L280 150M364 150L365 151L364 150M390 150L391 151L390 150M61 151L62 152L61 151M123 151L124 152L123 151z"/>
<path style="fill:#acacac; stroke:none;" d="M142 151L143 152L142 151z"/>
<path style="fill:#9e701d; stroke:none;" d="M212 151L213 152L212 151z"/>
<path style="fill:#acacac; stroke:none;" d="M248 151L249 152L248 151M261 151L262 152L261 151z"/>
<path style="fill:#9e701d; stroke:none;" d="M282 151L283 152L282 151z"/>
<path style="fill:#acacac; stroke:none;" d="M140 152L141 153L140 152z"/>
<path style="fill:#9e701d; stroke:none;" d="M213 152L214 153L213 152M244 152L245 153L244 152z"/>
<path style="fill:#acacac; stroke:none;" d="M245 152L246 153L245 152M263 152L264 153L263 152z"/>
<path style="fill:#9e701d; stroke:none;" d="M283 152L284 153L283 152M391 152L392 153L391 152M34 153L35 154L34 153M60 153L61 154L60 153M120 153L121 154L120 153M138 153L139 154L138 153M240 153L241 154L240 153z"/>
<path style="fill:#acacac; stroke:none;" d="M241 153L242 154L241 153M265 153L266 154L265 153z"/>
<path style="fill:#9e701d; stroke:none;" d="M284 153L285 154L284 153M366 153L367 154L366 153M59 154L60 155L59 154z"/>
<path style="fill:#acacac; stroke:none;" d="M137 154L138 155L137 154z"/>
<path style="fill:#9e701d; stroke:none;" d="M215 154L216 155L215 154M236 154L237 155L236 154z"/>
<path style="fill:#acacac; stroke:none;" d="M237.667 154.333L238.333 154.667L237.667 154.333z"/>
<path style="fill:#9e701d; stroke:none;" d="M267 154L268 155L267 154M286 154L287 155L286 154M33 155L34 156L33 155M117 155L118 156L117 155M135 155L136 156L135 155M216 155L217 156L216 155M232 155L233 156L232 155z"/>
<path style="fill:#acacac; stroke:none;" d="M233 155L234 156L233 155M268 155L269 156L268 155z"/>
<path style="fill:#9e701d; stroke:none;" d="M287 155L288 156L287 155M367 155L368 156L367 155M58 156L59 157L58 156z"/>
<path style="fill:#acacac; stroke:none;" d="M134 156L135 157L134 156M218 156L219 157L218 156z"/>
<path style="fill:#9e701d; stroke:none;" d="M226.667 156.333L227.333 156.667L226.667 156.333z"/>
<path style="fill:#acacac; stroke:none;" d="M228.667 156.333L229.333 156.667L228.667 156.333z"/>
<path style="fill:#9e701d; stroke:none;" d="M270 156L271 157L270 156M288 156L289 157L288 156M368 156L369 157L368 156M57 157L58 158L57 157M114 157L115 158L114 157M132 157L133 158L132 157z"/>
<path style="fill:#acacac; stroke:none;" d="M271 157L272 158L271 157z"/>
<path style="fill:#9e701d; stroke:none;" d="M290 157L291 158L290 157M394 157L395 158L394 157z"/>
<path style="fill:#acacac; stroke:none;" d="M131 158L132 159L131 158M272 158L273 159L272 158z"/>
<path style="fill:#9e701d; stroke:none;" d="M291 158L292 159L291 158M369 158L370 159L369 158M56 159L57 160L56 159M111 159L112 160L111 159M129 159L130 160L129 159M292 159L293 160L292 159M370 159L371 160L370 159M395 159L396 160L395 159M110 160L111 161L110 160z"/>
<path style="fill:#acacac; stroke:none;" d="M128 160L129 161L128 160z"/>
<path style="fill:#9e701d; stroke:none;" d="M275 160L276 161L275 160M294 160L295 161L294 160M55 161L56 162L55 161M126 161L127 162L126 161z"/>
<path style="fill:#acacac; stroke:none;" d="M276 161L277 162L276 161z"/>
<path style="fill:#9e701d; stroke:none;" d="M295 161L296 162L295 161M371 161L372 162L371 161M396 161L397 162L396 161M54 162L55 163L54 162M107 162L108 163L107 162z"/>
<path style="fill:#acacac; stroke:none;" d="M125 162L126 163L125 162M277 162L278 163L277 162z"/>
<path style="fill:#9e701d; stroke:none;" d="M296 162L297 163L296 162M106 163L107 164L106 163M123 163L124 164L123 163M298 163L299 164L298 163M372 163L373 164L372 163M397 163L398 164L397 163M53 164L54 165L53 164z"/>
<path style="fill:#acacac; stroke:none;" d="M122 164L123 165L122 164z"/>
<path style="fill:#9e701d; stroke:none;" d="M280 164L281 165L280 164M299 164L300 165L299 164M373.333 164.667L373.667 165.333L373.333 164.667M120 165L121 166L120 165z"/>
<path style="fill:#acacac; stroke:none;" d="M281 165L282 166L281 165z"/>
<path style="fill:#9e701d; stroke:none;" d="M398 165L399 166L398 165M52 166L53 167L52 166M102 166L103 167L102 166z"/>
<path style="fill:#acacac; stroke:none;" d="M119 166L120 167L119 166M282 166L283 167L282 166z"/>
<path style="fill:#9e701d; stroke:none;" d="M302 166L303 167L302 166M374 166L375 167L374 166M101 167L102 168L101 167M284 167L285 168L284 167M303 167L304 168L303 167M399 167L400 168L399 167M51 168L52 169L51 168M116 168L117 169L116 168z"/>
<path style="fill:#acacac; stroke:none;" d="M285 168L286 169L285 168z"/>
<path style="fill:#9e701d; stroke:none;" d="M304 168L305 169L304 168M375 168L376 169L375 168M26 169L27 170L26 169M50.3333 169.667L50.6667 170.333L50.3333 169.667z"/>
<path style="fill:#acacac; stroke:none;" d="M115 169L116 170L115 169M286 169L287 170L286 169z"/>
<path style="fill:#9e701d; stroke:none;" d="M113 170L114 171L113 170M307 170L308 171L307 170M376 170L377 171L376 170M25 171L26 172L25 171M49.3333 171.667L49.6667 172.333L49.3333 171.667z"/>
<path style="fill:#acacac; stroke:none;" d="M112 171L113 172L112 171z"/>
<path style="fill:#9e701d; stroke:none;" d="M289 171L290 172L289 171M308 171L309 172L308 171z"/>
<path style="fill:#acacac; stroke:none;" d="M111 172L112 173L111 172z"/>
<path style="fill:#9e701d; stroke:none;" d="M290 172L291 173L290 172M309 172L310 173L309 172M377 172L378 173L377 172M48.3333 173.667L48.6667 174.333L48.3333 173.667z"/>
<path style="fill:#acacac; stroke:none;" d="M291 173L292 174L291 173z"/>
<path style="fill:#9e701d; stroke:none;" d="M108 174L109 175L108 174z"/>
<path style="fill:#acacac; stroke:none;" d="M292 174L293 175L292 174z"/>
<path style="fill:#9e701d; stroke:none;" d="M312 174L313 175L312 174M378 174L379 175L378 174M402 174L403 175L402 174z"/>
<path style="fill:#acacac; stroke:none;" d="M107 175L108 176L107 175M293 175L294 176L293 175z"/>
<path style="fill:#9e701d; stroke:none;" d="M313 175L314 176L313 175M23 176L24 177L23 176M47 176L48 177L47 176z"/>
<path style="fill:#acacac; stroke:none;" d="M106 176L107 177L106 176M294 176L295 177L294 176z"/>
<path style="fill:#9e701d; stroke:none;" d="M314 176L315 177L314 176M379 176L380 177L379 176z"/>
<path style="fill:#acacac; stroke:none;" d="M105 177L106 178L105 177z"/>
<path style="fill:#9e701d; stroke:none;" d="M46 178L47 179L46 178M90 178L91 179L90 178M317 178L318 179L317 178M380.333 178.667L380.667 179.333L380.333 178.667M89 179L90 180L89 179M298 179L299 180L298 179M318 179L319 180L318 179M404 179L405 180L404 179M45 180L46 181L45 180M101 180L102 181L101 180M299 180L300 181L299 180M381.333 180.667L381.667 181.333L381.333 180.667M21 181L22 182L21 181M88 181L89 182L88 181M100 181L101 182L100 181M300 181L301 182L300 181M321 181L322 182L321 181M44.3333 182.667L44.6667 183.333L44.3333 182.667M301 182L302 183L301 182M322 182L323 183L322 182M87 183L88 184L87 183z"/>
<path style="fill:#acacac; stroke:none;" d="M302 183L303 184L302 183z"/>
<path style="fill:#9e701d; stroke:none;" d="M323 183L324 184L323 183M382 183L383 184L382 183M20 184L21 185L20 184z"/>
<path style="fill:#acacac; stroke:none;" d="M98 184L99 185L98 184M303 184L304 185L303 184z"/>
<path style="fill:#9e701d; stroke:none;" d="M324 184L325 185L324 184M406 184L407 185L406 184M43 185L44 186L43 185M97 185L98 186L97 185z"/>
<path style="fill:#acacac; stroke:none;" d="M304 185L305 186L304 185z"/>
<path style="fill:#9e701d; stroke:none;" d="M325 185L326 186L325 185M383.333 185.667L383.667 186.333L383.333 185.667z"/>
<path style="fill:#acacac; stroke:none;" d="M305 186L306 187L305 186z"/>
<path style="fill:#9e701d; stroke:none;" d="M42.3333 187.667L42.6667 188.333L42.3333 187.667z"/>
<path style="fill:#acacac; stroke:none;" d="M97.3333 187.667L97.6667 188.333L97.3333 187.667M306 187L307 188L306 187z"/>
<path style="fill:#9e701d; stroke:none;" d="M407 187L408 188L407 187z"/>
<path style="fill:#acacac; stroke:none;" d="M307 188L308 189L307 188z"/>
<path style="fill:#9e701d; stroke:none;" d="M329 188L330 189L329 188M384 188L385 189L384 188M97.3333 189.667L97.6667 190.333L97.3333 189.667M330 189L331 190L330 189M41 190L42 191L41 190M331 190L332 191L331 190M385.333 190.667L385.667 191.333L385.333 190.667M408 190L409 191L408 190M311 191L312 192L311 191M332 191L333 192L332 191M40.3333 192.667L40.6667 193.333L40.3333 192.667M87.3333 192.667L87.6667 193.333L87.3333 192.667z"/>
<path style="fill:#acacac; stroke:none;" d="M98 192L99 193L98 192z"/>
<path style="fill:#9e701d; stroke:none;" d="M312 192L313 193L312 192M333 192L334 193L333 192M17 193L18 194L17 193M98 193L99 194L98 193z"/>
<path style="fill:#acacac; stroke:none;" d="M313 193L314 194L313 193z"/>
<path style="fill:#9e701d; stroke:none;" d="M334 193L335 194L334 193M386.333 193.667L386.667 194.333L386.333 193.667M409 193L410 194L409 193z"/>
<path style="fill:#acacac; stroke:none;" d="M314 194L315 195L314 194z"/>
<path style="fill:#9e701d; stroke:none;" d="M335 194L336 195L335 194M39.3333 195.667L39.6667 196.333L39.3333 195.667z"/>
<path style="fill:#acacac; stroke:none;" d="M99 195L100 196L99 195M315 195L316 196L315 195z"/>
<path style="fill:#9e701d; stroke:none;" d="M336 195L337 196L336 195M16 196L17 197L16 196M88 196L89 197L88 196M337 196L338 197L337 196M387.333 196.667L387.667 197.333L387.333 196.667z"/>
<path style="fill:#acacac; stroke:none;" d="M100 197L101 198L100 197M154 197L155 198L154 197z"/>
<path style="fill:#9e701d; stroke:none;" d="M155 197L155 198L159 198L155 197z"/>
<path style="fill:#acacac; stroke:none;" d="M159.667 197.333L160.333 197.667L159.667 197.333z"/>
<path style="fill:#9e701d; stroke:none;" d="M318 197L319 198L318 197M410 197L411 198L410 197M38.3333 198.667L38.6667 199.333L38.3333 198.667M100 198L101 199L100 198z"/>
<path style="fill:#acacac; stroke:none;" d="M150 198L151 199L150 198z"/>
<path style="fill:#9e701d; stroke:none;" d="M151 198L152 199L151 198M162 198L163 199L162 198z"/>
<path style="fill:#acacac; stroke:none;" d="M163 198L164 199L163 198M319 198L320 199L319 198z"/>
<path style="fill:#9e701d; stroke:none;" d="M89.3333 199.667L89.6667 200.333L89.3333 199.667z"/>
<path style="fill:#acacac; stroke:none;" d="M147 199L148 200L147 199z"/>
<path style="fill:#9e701d; stroke:none;" d="M148 199L149 200L148 199z"/>
<path style="fill:#acacac; stroke:none;" d="M320 199L321 200L320 199z"/>
<path style="fill:#9e701d; stroke:none;" d="M388.333 199.667L388.667 200.333L388.333 199.667z"/>
<path style="fill:#acacac; stroke:none;" d="M145 200L146 201L145 200M166 200L167 201L166 200z"/>
<path style="fill:#9e701d; stroke:none;" d="M322 200L323 201L322 200M342 200L343 201L342 200M411 200L412 201L411 200z"/>
<path style="fill:#acacac; stroke:none;" d="M102 201L103 202L102 201z"/>
<path style="fill:#9e701d; stroke:none;" d="M143 201L144 202L143 201z"/>
<path style="fill:#acacac; stroke:none;" d="M323 201L324 202L323 201z"/>
<path style="fill:#9e701d; stroke:none;" d="M343 201L344 202L343 201M37.3333 202.667L37.6667 203.333L37.3333 202.667M90 202L93 210L90 202M141 202L142 203L141 202z"/>
<path style="fill:#acacac; stroke:none;" d="M324 202L325 203L324 202z"/>
<path style="fill:#9e701d; stroke:none;" d="M344 202L345 203L344 202M389.333 202.667L389.667 203.333L389.333 202.667M14 203L15 204L14 203M103 203L104 204L103 203z"/>
<path style="fill:#acacac; stroke:none;" d="M139 203L140 204L139 203z"/>
<path style="fill:#9e701d; stroke:none;" d="M168 203L169 204L168 203M345 203L346 204L345 203z"/>
<path style="fill:#acacac; stroke:none;" d="M104 204L105 205L104 204M137 204L138 205L137 204z"/>
<path style="fill:#9e701d; stroke:none;" d="M327 204L328 205L327 204M346 204L347 205L346 204M412 204L413 205L412 204M36.3333 205.667L36.6667 206.333L36.3333 205.667M136 205L137 206L136 205z"/>
<path style="fill:#acacac; stroke:none;" d="M169 205L170 206L169 205z"/>
<path style="fill:#9e701d; stroke:none;" d="M328 205L329 206L328 205M347 205L348 206L347 205M105 206L106 207L105 206z"/>
<path style="fill:#acacac; stroke:none;" d="M134 206L135 207L134 206M329 206L330 207L329 206z"/>
<path style="fill:#9e701d; stroke:none;" d="M390.333 206.667L390.667 207.333L390.333 206.667M13.3333 207.667L13.6667 208.333L13.3333 207.667z"/>
<path style="fill:#acacac; stroke:none;" d="M330 207L331 208L330 207z"/>
<path style="fill:#9e701d; stroke:none;" d="M350 207L351 208L350 207z"/>
<path style="fill:#acacac; stroke:none;" d="M131 208L132 209L131 208z"/>
<path style="fill:#9e701d; stroke:none;" d="M152 208L152 209L155 209L152 208z"/>
<path style="fill:#e6a52f; stroke:none;" d="M252 294C245.376 290.234 234.36 289.954 231.483 281.995C225.236 264.715 248.784 238.235 232.895 225.434C219.523 214.66 195.909 231.727 181 231.66C174.34 231.63 166.849 228.765 163.225 222.96C160.027 217.838 161.472 207.008 152.999 208.947C113.166 218.061 105.824 268.573 122.489 300C142.265 337.292 189.902 344.132 224 322.934C235.132 316.014 246.104 305.84 252 294z"/>
<path style="fill:#9e701d; stroke:none;" d="M158 208L159 209L158 208z"/>
<path style="fill:#acacac; stroke:none;" d="M170 208L171 209L170 208z"/>
<path style="fill:#9e701d; stroke:none;" d="M351 208L352 209L351 208M413.333 208.667L413.667 209.333L413.333 208.667M35.3333 209.667L35.6667 210.333L35.3333 209.667M130 209L131 210L130 209M150 209L151 210L150 209M159 209L160 210L159 209M170.333 209.667L170.667 210.333L170.333 209.667M352 209L353 210L352 209M91 210L92 211L91 210z"/>
<path style="fill:#acacac; stroke:none;" d="M128 210L129 211L128 210z"/>
<path style="fill:#9e701d; stroke:none;" d="M148 210L149 211L148 210M334 210L335 211L334 210M391.333 210.667L391.667 211.333L391.333 210.667M90 211L91 212L90 211M105 211L106 212L105 211M127 211L128 212L127 211M146 211L147 212L146 211z"/>
<path style="fill:#acacac; stroke:none;" d="M217 211L218 212L217 211z"/>
<path style="fill:#9e701d; stroke:none;" d="M218 211L218 212L223 212L218 211z"/>
<path style="fill:#acacac; stroke:none;" d="M223 211L223 212L226 212L223 211z"/>
<path style="fill:#9e701d; stroke:none;" d="M335 211L336 212L335 211M355 211L356 212L355 211M12 212L13 213L12 212M89 212L90 213L89 212z"/>
<path style="fill:#acacac; stroke:none;" d="M125 212L126 213L125 212z"/>
<path style="fill:#9e701d; stroke:none;" d="M144 212L145 213L144 212M160 212L160 217L161 217L160 212z"/>
<path style="fill:#acacac; stroke:none;" d="M213 212L214 213L213 212z"/>
<path style="fill:#9e701d; stroke:none;" d="M214 212L215 213L214 212M230 212L231 213L230 212z"/>
<path style="fill:#acacac; stroke:none;" d="M231.667 212.333L232.333 212.667L231.667 212.333M336 212L337 213L336 212z"/>
<path style="fill:#9e701d; stroke:none;" d="M356 212L357 213L356 212M34 213L34 216L35 216L34 213M88 213L89 214L88 213z"/>
<path style="fill:#acacac; stroke:none;" d="M124 213L125 214L124 213z"/>
<path style="fill:#9e701d; stroke:none;" d="M142 213L143 214L142 213z"/>
<path style="fill:#acacac; stroke:none;" d="M210 213L211 214L210 213z"/>
<path style="fill:#9e701d; stroke:none;" d="M211 213L212 214L211 213M234 213L235 214L234 213z"/>
<path style="fill:#acacac; stroke:none;" d="M235 213L236 214L235 213M337 213L338 214L337 213z"/>
<path style="fill:#9e701d; stroke:none;" d="M414 213L415 214L414 213M87 214L88 215L87 214M102 214L103 215L102 214M123 214L124 215L123 214z"/>
<path style="fill:#acacac; stroke:none;" d="M207 214L208 215L207 214z"/>
<path style="fill:#9e701d; stroke:none;" d="M208 214L209 215L208 214z"/>
<path style="fill:#acacac; stroke:none;" d="M237 214L238 215L237 214M338 214L339 215L338 214z"/>
<path style="fill:#9e701d; stroke:none;" d="M359 214L360 215L359 214M392 214L392 217L393 217L392 214z"/>
<path style="fill:#acacac; stroke:none;" d="M101 215L102 216L101 215z"/>
<path style="fill:#9e701d; stroke:none;" d="M139 215L140 216L139 215z"/>
<path style="fill:#acacac; stroke:none;" d="M171 215L172 216L171 215M204 215L205 216L204 215z"/>
<path style="fill:#9e701d; stroke:none;" d="M205 215L206 216L205 215z"/>
<path style="fill:#acacac; stroke:none;" d="M339 215L340 216L339 215z"/>
<path style="fill:#9e701d; stroke:none;" d="M360 215L361 216L360 215M99 216L100 217L99 216z"/>
<path style="fill:#acacac; stroke:none;" d="M120 216L121 217L120 216z"/>
<path style="fill:#9e701d; stroke:none;" d="M137 216L138 217L137 216z"/>
<path style="fill:#acacac; stroke:none;" d="M201 216L202 217L201 216z"/>
<path style="fill:#9e701d; stroke:none;" d="M202 216L203 217L202 216z"/>
<path style="fill:#acacac; stroke:none;" d="M240 216L241 217L240 216M340 216L341 217L340 216z"/>
<path style="fill:#9e701d; stroke:none;" d="M361 216L362 217L361 216M11.3333 217.667L11.6667 218.333L11.3333 217.667M33 217L33 221L34 221L33 217M85 217L86 218L85 217M98 217L99 218L98 217z"/>
<path style="fill:#acacac; stroke:none;" d="M119 217L120 218L119 217z"/>
<path style="fill:#9e701d; stroke:none;" d="M136 217L137 218L136 217M172 217L173 218L172 217z"/>
<path style="fill:#acacac; stroke:none;" d="M198 217L199 218L198 217z"/>
<path style="fill:#9e701d; stroke:none;" d="M199 217L200 218L199 217z"/>
<path style="fill:#acacac; stroke:none;" d="M241 217L242 218L241 217z"/>
<path style="fill:#9e701d; stroke:none;" d="M362 217L363 218L362 217z"/>
<path style="fill:#acacac; stroke:none;" d="M97 218L98 219L97 218z"/>
<path style="fill:#9e701d; stroke:none;" d="M118 218L119 219L118 218M173 218L174 219L173 218z"/>
<path style="fill:#acacac; stroke:none;" d="M194.667 218.333L195.333 218.667L194.667 218.333M242 218L243 219L242 218z"/>
<path style="fill:#9e701d; stroke:none;" d="M415.333 218.667L415.667 219.333L415.333 218.667M84 219L85 220L84 219z"/>
<path style="fill:#acacac; stroke:none;" d="M96 219L97 220L96 219z"/>
<path style="fill:#9e701d; stroke:none;" d="M133 219L134 220L133 219M161 219L162 220L161 219z"/>
<path style="fill:#acacac; stroke:none;" d="M175 219L176 220L175 219M190 219L191 220L190 219z"/>
<path style="fill:#9e701d; stroke:none;" d="M191.667 219.333L192.333 219.667L191.667 219.333M344 219L345 220L344 219M365 219L366 220L365 219M393 219L393 222L394 222L393 219M95 220L96 221L95 220z"/>
<path style="fill:#acacac; stroke:none;" d="M115 220L116 221L115 220z"/>
<path style="fill:#9e701d; stroke:none;" d="M132 220L133 221L132 220M178 220L179 221L178 220z"/>
<path style="fill:#acacac; stroke:none;" d="M179 220L179 221L185 221L179 220z"/>
<path style="fill:#9e701d; stroke:none;" d="M185.667 220.333L186.333 220.667L185.667 220.333z"/>
<path style="fill:#acacac; stroke:none;" d="M345 220L346 221L345 220z"/>
<path style="fill:#9e701d; stroke:none;" d="M366 220L367 221L366 220M94 221L95 222L94 221z"/>
<path style="fill:#acacac; stroke:none;" d="M114 221L115 222L114 221z"/>
<path style="fill:#9e701d; stroke:none;" d="M130 221L131 222L130 221M244 221L245 222L244 221z"/>
<path style="fill:#acacac; stroke:none;" d="M346 221L347 222L346 221z"/>
<path style="fill:#9e701d; stroke:none;" d="M367 221L368 222L367 221M83.3333 222.667L83.6667 223.333L83.3333 222.667M113 222L114 223L113 222M129 222L130 223L129 222M162 222L163 223L162 222M216.667 222.333L217.333 222.667L216.667 222.333M222 222L222 223L227 223L222 222z"/>
<path style="fill:#acacac; stroke:none;" d="M347 222L348 223L347 222z"/>
<path style="fill:#9e701d; stroke:none;" d="M368 222L369 223L368 222M10.3333 223.667L10.6667 224.333L10.3333 223.667M32 223L32 227L33 227L32 223M93 223L94 224L93 223M112 223L113 224L112 223M128 223L129 224L128 223M163 223L164 224L163 223M213 223L214 224L213 223M230 223L231 224L230 223M245 223L246 224L245 223M369 223L370 224L369 223z"/>
<path style="fill:#acacac; stroke:none;" d="M93 224L93 228L94 228L93 224z"/>
<path style="fill:#9e701d; stroke:none;" d="M210 224L211 225L210 224M232 224L233 225L232 224M350 224L351 225L350 224M394 224L394 228L395 228L394 224M125 225L126 226L125 225M164 225L165 226L164 225M207 225L208 226L207 225M233 225L234 226L233 225M246 225L247 226L246 225z"/>
<path style="fill:#acacac; stroke:none;" d="M351 225L352 226L351 225z"/>
<path style="fill:#9e701d; stroke:none;" d="M372 225L373 226L372 225M416.333 225.667L416.667 226.333L416.333 225.667z"/>
<path style="fill:#acacac; stroke:none;" d="M108 226L109 227L108 226z"/>
<path style="fill:#9e701d; stroke:none;" d="M124 226L125 227L124 226M165 226L166 227L165 226M204 226L205 227L204 226M234 226L235 227L234 226M374 226L375 227L374 226z"/>
<path style="fill:#acacac; stroke:none;" d="M107 227L108 228L107 227z"/>
<path style="fill:#9e701d; stroke:none;" d="M123 227L124 228L123 227M201 227L202 228L201 227M235 227L236 228L235 227M247 227L248 228L247 227M354 227L355 228L354 227M376 227L377 228L376 227M82 228L83 229L82 228z"/>
<path style="fill:#acacac; stroke:none;" d="M94 228L95 229L94 228M106 228L107 229L106 228z"/>
<path style="fill:#9e701d; stroke:none;" d="M122 228L123 229L122 228M168 228L169 229L168 228M197.667 228.333L198.333 228.667L197.667 228.333z"/>
<path style="fill:#acacac; stroke:none;" d="M355 228L356 229L355 228z"/>
<path style="fill:#9e701d; stroke:none;" d="M378 228L379 229L378 228M31 229L31 235L32 235L31 229M95 229L96 230L95 229z"/>
<path style="fill:#acacac; stroke:none;" d="M105 229L106 230L105 229z"/>
<path style="fill:#9e701d; stroke:none;" d="M170 229L171 230L170 229M193.667 229.333L194.333 229.667L193.667 229.333M236 229L237 230L236 229z"/>
<path style="fill:#acacac; stroke:none;" d="M248 229L249 230L248 229z"/>
<path style="fill:#9e701d; stroke:none;" d="M357 229L358 230L357 229M380.667 229.333L381.333 229.667L380.667 229.333M96 230L97 231L96 230M104 230L105 231L104 230M173.667 230.333L174.333 230.667L173.667 230.333M188 230L188 231L191 231L188 230M383 230L384 231L383 230M9.33333 231.667L9.66667 232.333L9.33333 231.667M103 231L104 232L103 231M121 231L122 232L121 231M178 231L178 232L184 232L178 231M237 231L238 232L237 231z"/>
<path style="fill:#acacac; stroke:none;" d="M360 231L361 232L360 231z"/>
<path style="fill:#9e701d; stroke:none;" d="M385 231L386 232L385 231M395 231L395 236L396 236L395 231M83 232L84 233L83 232z"/>
<path style="fill:#acacac; stroke:none;" d="M99 232L100 233L99 232z"/>
<path style="fill:#9e701d; stroke:none;" d="M102 232L103 233L102 232z"/>
<path style="fill:#acacac; stroke:none;" d="M249 232L250 233L249 232M362 232L363 233L362 232z"/>
<path style="fill:#9e701d; stroke:none;" d="M387 232L388 233L387 232z"/>
<path style="fill:#acacac; stroke:none;" d="M100 233L101 234L100 233z"/>
<path style="fill:#9e701d; stroke:none;" d="M101 233L102 234L101 233M120 233L121 234L120 233M238 233L239 234L238 233M249 233L249 237L250 237L249 233M364 233L365 234L364 233M390 233L391 234L390 233M417 233L417 236L418 236L417 233M366 234L367 235L366 234M392 234L393 235L392 234M119.333 235.667L119.667 236.333L119.333 235.667M368 235L369 236L368 235M86 236L87 237L86 236M370 236L371 237L370 236M87 237L100 254L101 254C100.73 245.698 93.5698 241.109 87 237M129 237L129 238L132 238L129 237z"/>
<path style="fill:#acacac; stroke:none;" d="M249.333 237.667L249.667 238.333L249.333 237.667z"/>
<path style="fill:#9e701d; stroke:none;" d="M372 237L373 238L372 237M30 238L30 251L31 251L30 238M118.333 238.667L118.667 239.333L118.333 238.667M127 238L128 239L127 238z"/>
<path style="fill:#060606; stroke:none;" d="M128.419 239.046C124.578 241.407 124.852 248.138 125.04 252C125.652 264.579 138.472 270.698 148.985 264.005C162.567 255.36 148.171 247.868 140 242.808C137.016 240.96 132.112 236.776 128.419 239.046z"/>
<path style="fill:#9e701d; stroke:none;" d="M133 238L134 239L133 238M374 238L375 239L374 238M134 239L135 240L134 239z"/>
<path style="fill:#acacac; stroke:none;" d="M376 239L377 240L376 239z"/>
<path style="fill:#9e701d; stroke:none;" d="M126 240L127 241L126 240M136 240L137 241L136 240M238.333 240.667L238.667 241.333L238.333 240.667z"/>
<path style="fill:#acacac; stroke:none;" d="M378 240L379 241L378 240z"/>
<path style="fill:#9e701d; stroke:none;" d="M117.333 241.667L117.667 242.333L117.333 241.667M137 241L138 242L137 241M248 241L249 242L248 241z"/>
<path style="fill:#acacac; stroke:none;" d="M380 241L381 242L380 241z"/>
<path style="fill:#9e701d; stroke:none;" d="M381 241L382 242L381 241M125.333 242.667L125.667 243.333L125.333 242.667M139 242L140 243L139 242z"/>
<path style="fill:#acacac; stroke:none;" d="M248.333 242.667L248.667 243.333L248.333 242.667z"/>
<path style="fill:#9e701d; stroke:none;" d="M383 242L384 243L383 242M8 243L8 250L9 250L8 243M237.333 243.667L237.667 244.333L237.333 243.667z"/>
<path style="fill:#acacac; stroke:none;" d="M385 243L386 244L385 243z"/>
<path style="fill:#9e701d; stroke:none;" d="M142 244L143 245L142 244M388 244L389 245L388 244M116.333 245.667L116.667 246.333L116.333 245.667M247 245L248 246L247 245z"/>
<path style="fill:#acacac; stroke:none;" d="M390 245L391 246L390 245z"/>
<path style="fill:#9e701d; stroke:none;" d="M124 246L124 254L125 254L124 246M145 246L146 247L145 246M236.333 246.667L236.667 247.333L236.333 246.667z"/>
<path style="fill:#acacac; stroke:none;" d="M247 246L248 247L247 246M392 246L393 247L392 246z"/>
<path style="fill:#9e701d; stroke:none;" d="M393 246L394 247L393 246z"/>
<path style="fill:#acacac; stroke:none;" d="M395 247L396 248L395 247z"/>
<path style="fill:#9e701d; stroke:none;" d="M148 248L149 249L148 248M246 248L247 249L246 248M398 248L399 249L398 248M115 249L115 252L116 252L115 249M150 249L151 250L150 249M235.333 249.667L235.667 250.333L235.333 249.667z"/>
<path style="fill:#acacac; stroke:none;" d="M246 249L247 250L246 249M400 249L401 250L400 249z"/>
<path style="fill:#9e701d; stroke:none;" d="M151 250L152 251L151 250M403 250L404 251L403 250M428 250L429 251L428 250M153 251L154 252L153 251M245 251L246 252L245 251z"/>
<path style="fill:#acacac; stroke:none;" d="M405 251L406 252L405 251z"/>
<path style="fill:#9e701d; stroke:none;" d="M154 252L155 253L154 252M234 252L235 253L234 252z"/>
<path style="fill:#acacac; stroke:none;" d="M245 252L246 253L245 252M407 252L408 253L407 252z"/>
<path style="fill:#9e701d; stroke:none;" d="M408 252L409 253L408 252M155 253L156 254L155 253M410 253L411 254L410 253M433 253L434 254L433 253z"/>
<path style="fill:#acacac; stroke:none;" d="M244 254L245 255L244 254M412 254L413 255L412 254z"/>
<path style="fill:#9e701d; stroke:none;" d="M114 255L114 260L115 260L114 255M192 255L193 256L192 255z"/>
<path style="fill:#060606; stroke:none;" d="M193.225 255.927C188.513 257.407 188.858 265.157 189.04 269C189.527 279.251 198.067 285.31 208 282.196C212.61 280.751 224.777 271.36 220.302 265.51C217.439 261.768 209.251 260.501 205 258.947C201.707 257.742 196.829 254.794 193.225 255.927z"/>
<path style="fill:#9e701d; stroke:none;" d="M195 255L196 256L195 255M233.333 255.667L233.667 256.333L233.333 255.667z"/>
<path style="fill:#acacac; stroke:none;" d="M414 255L415 256L414 255z"/>
<path style="fill:#9e701d; stroke:none;" d="M436 255L437 256L436 255M125 256L126 257L125 256M198 256L199 257L198 256z"/>
<path style="fill:#acacac; stroke:none;" d="M416 256L417 257L416 256z"/>
<path style="fill:#9e701d; stroke:none;" d="M155 257L156 258L155 257M190 257L191 258L190 257M201 257L202 258L201 257M243 257L244 258L243 257z"/>
<path style="fill:#acacac; stroke:none;" d="M418 257L419 258L418 257z"/>
<path style="fill:#9e701d; stroke:none;" d="M439 257L440 258L439 257M8 258L8 265L9 265L8 258M30 258L30 271L31 271L30 258M154 258L155 259L154 258M203.667 258.333L204.333 258.667L203.667 258.333M232.333 258.667L232.667 259.333L232.333 258.667z"/>
<path style="fill:#acacac; stroke:none;" d="M243 258L244 259L243 258M420 258L421 259L420 258z"/>
<path style="fill:#9e701d; stroke:none;" d="M99 259L99 275L100 275L99 259M126 259L127 260L126 259M189.333 259.667L189.667 260.333L189.333 259.667M206.667 259.333L207.333 259.667L206.667 259.333M422 259L423 260L422 259M127 260L128 261L127 260M153 260L154 261L153 260M209 260L210 261L209 260M242 260L243 261L242 260M424 260L425 261L424 260M443 260L444 261L443 260M152 261L153 262L152 261M212 261L213 262L212 261z"/>
<path style="fill:#acacac; stroke:none;" d="M242 261L243 262L242 261M425 261L426 262L425 261z"/>
<path style="fill:#9e701d; stroke:none;" d="M128 262L129 263L128 262M151 262L152 263L151 262M214.667 262.333L215.333 262.667L214.667 262.333M231.333 262.667L231.667 263.333L231.333 262.667M427 262L428 263L427 262M129 263L130 264L129 263M188 263L188 272L189 272L188 263M217.667 263.333L218.333 263.667L217.667 263.333z"/>
<path style="fill:#acacac; stroke:none;" d="M428 263L429 264L428 263z"/>
<path style="fill:#9e701d; stroke:none;" d="M447 263L448 264L447 263M148 264L149 265L148 264M220 264L221 265L220 264M241 264L242 265L241 264M430 264L431 265L430 264M132 265L133 266L132 265M146 265L147 266L146 265M221 265L222 266L221 265z"/>
<path style="fill:#acacac; stroke:none;" d="M241.333 265.667L241.667 266.333L241.333 265.667M431 265L432 266L431 265z"/>
<path style="fill:#9e701d; stroke:none;" d="M134.667 266.333L135.333 266.667L134.667 266.333M143.667 266.333L144.333 266.667L143.667 266.333M433 266L434 267L433 266M451 266L452 267L451 266z"/>
<path style="fill:#acacac; stroke:none;" d="M434 267L435 268L434 267z"/>
<path style="fill:#9e701d; stroke:none;" d="M221.333 268.667L221.667 269.333L221.333 268.667M230 268L230 279L231 279L230 268M437 269L438 270L437 269M455 269L456 270L455 269z"/>
<path style="fill:#acacac; stroke:none;" d="M438 270L439 271L438 270z"/>
<path style="fill:#9e701d; stroke:none;" d="M114 271L114 276L115 276L114 271M220 271L221 272L220 271z"/>
<path style="fill:#acacac; stroke:none;" d="M439 271L440 272L439 271z"/>
<path style="fill:#9e701d; stroke:none;" d="M219 272L220 273L219 272M459 272L460 273L459 272M189.333 273.667L189.667 274.333L189.333 273.667M442 273L443 274L442 273M31 274L31 279L32 279L31 274M218 274L219 275L218 274M443 274L444 275L443 274M9.33333 275.667L9.66667 276.333L9.33333 275.667M217 275L218 276L217 275M444 275L445 276L444 275M463 275L464 276L463 275M190 276L191 277L190 276M216 276L217 277L216 276z"/>
<path style="fill:#acacac; stroke:none;" d="M445 276L446 277L445 276z"/>
<path style="fill:#9e701d; stroke:none;" d="M215 277L216 278L215 277z"/>
<path style="fill:#acacac; stroke:none;" d="M241 277L242 278L241 277M446 277L447 278L446 277z"/>
<path style="fill:#9e701d; stroke:none;" d="M214 278L215 279L214 278M242 278L243 279L242 278z"/>
<path style="fill:#acacac; stroke:none;" d="M243 278L244 279L243 278M447 278L448 279L447 278z"/>
<path style="fill:#9e701d; stroke:none;" d="M467 278L468 279L467 278M115 279L115 282L116 282L115 279M192 279L193 280L192 279M213 279L214 280L213 279M245 279L246 280L245 279z"/>
<path style="fill:#acacac; stroke:none;" d="M246 279L247 280L246 279z"/>
<path style="fill:#9e701d; stroke:none;" d="M448 279L449 280L448 279M100.333 280.667L100.667 281.333L100.333 280.667M193 280L194 281L193 280M248 280L249 281L248 280z"/>
<path style="fill:#acacac; stroke:none;" d="M249 280L250 281L249 280M448 280L449 281L448 280z"/>
<path style="fill:#9e701d; stroke:none;" d="M195 281L196 282L195 281M210 281L211 282L210 281M251 281L252 282L251 281z"/>
<path style="fill:#acacac; stroke:none;" d="M443.667 281.333L444.333 281.667L443.667 281.333z"/>
<path style="fill:#9e701d; stroke:none;" d="M445 281L446 282L445 281M471 281L472 282L471 281M32 282L32 286L33 286L32 282M197 282L198 283L197 282M207.667 282.333L208.333 282.667L207.667 282.333M231 282L232 283L231 282M253 282L254 283L253 282z"/>
<path style="fill:#acacac; stroke:none;" d="M254 282L255 283L254 282M423 282L423 283L428 283L423 282z"/>
<path style="fill:#9e701d; stroke:none;" d="M428 282L428 283L437 283L428 282M10.3333 283.667L10.6667 284.333L10.3333 283.667M199 283L199 284L206 284L199 283z"/>
<path style="fill:#acacac; stroke:none;" d="M256 283L257 284L256 283M416 283L417 284L416 283z"/>
<path style="fill:#9e701d; stroke:none;" d="M417.667 283.333L418.333 283.667L417.667 283.333M116.333 284.667L116.667 285.333L116.333 284.667z"/>
<path style="fill:#acacac; stroke:none;" d="M410.667 284.333L411.333 284.667L410.667 284.333z"/>
<path style="fill:#9e701d; stroke:none;" d="M412 284L413 285L412 284M101.333 285.667L101.667 286.333L101.333 285.667M232 285L233 286L232 285M259 285L260 286L259 285z"/>
<path style="fill:#acacac; stroke:none;" d="M405.667 285.333L406.333 285.667L405.667 285.333z"/>
<path style="fill:#9e701d; stroke:none;" d="M407 285L408 286L407 285M233 286L234 287L233 286z"/>
<path style="fill:#acacac; stroke:none;" d="M261 286L262 287L261 286M401 286L402 287L401 286z"/>
<path style="fill:#9e701d; stroke:none;" d="M402 286L403 287L402 286M117.333 287.667L117.667 288.333L117.333 287.667M234 287L235 288L234 287M262 287L263 288L262 287z"/>
<path style="fill:#acacac; stroke:none;" d="M398 287L399 288L398 287z"/>
<path style="fill:#9e701d; stroke:none;" d="M399 287L400 288L399 287M478 287L482 291L478 287M33 288L33 291L34 291L33 288M237.667 288.333L238.333 288.667L237.667 288.333z"/>
<path style="fill:#acacac; stroke:none;" d="M264 288L265 289L264 288z"/>
<path style="fill:#9e701d; stroke:none;" d="M396 288L397 289L396 288M241.667 289.333L242.333 289.667L241.667 289.333M265 289L266 290L265 289M394 289L395 290L394 289M11 290L12 291L11 290M102 290L103 291L102 290M118.333 290.667L118.667 291.333L118.333 290.667M244 290L245 291L244 290z"/>
<path style="fill:#acacac; stroke:none;" d="M267 290L268 291L267 290M392 290L393 291L392 290z"/>
<path style="fill:#9e701d; stroke:none;" d="M247 291L248 292L247 291z"/>
<path style="fill:#acacac; stroke:none;" d="M268 291L269 292L268 291z"/>
<path style="fill:#9e701d; stroke:none;" d="M391 291L392 292L391 291M249 292L250 293L249 292M269 292L270 293L269 292z"/>
<path style="fill:#acacac; stroke:none;" d="M389 292L390 293L389 292z"/>
<path style="fill:#9e701d; stroke:none;" d="M34.3333 293.667L34.6667 294.333L34.3333 293.667M103 293L104 294L103 293M119 293L120 294L119 293M251 293L252 294L251 293z"/>
<path style="fill:#acacac; stroke:none;" d="M271 293L272 294L271 293M388 293L389 294L388 293z"/>
<path style="fill:#9e701d; stroke:none;" d="M272 294L273 295L272 294z"/>
<path style="fill:#acacac; stroke:none;" d="M387 294L388 295L387 294z"/>
<path style="fill:#9e701d; stroke:none;" d="M12 295L13 296L12 295M120.333 295.667L120.667 296.333L120.333 295.667M251 295L252 296L251 295z"/>
<path style="fill:#acacac; stroke:none;" d="M274 295L275 296L274 295z"/>
<path style="fill:#9e701d; stroke:none;" d="M386 295L387 296L386 295M104 296L105 297L104 296M275 296L276 297L275 296z"/>
<path style="fill:#acacac; stroke:none;" d="M384 296L385 297L384 296z"/>
<path style="fill:#9e701d; stroke:none;" d="M35 297L35 300L36 300L35 297M277 297L278 298L277 297M383 297L384 298L383 297M486 297L487 298L486 297M121 298L122 299L121 298M249 298L250 299L249 298M279 298L280 299L279 298z"/>
<path style="fill:#acacac; stroke:none;" d="M280 298L281 299L280 298M381 298L382 299L381 298z"/>
<path style="fill:#9e701d; stroke:none;" d="M105 299L106 300L105 299M248 299L249 300L248 299M282 299L283 300L282 299z"/>
<path style="fill:#acacac; stroke:none;" d="M283 299L284 300L283 299M379 299L380 300L379 299z"/>
<path style="fill:#9e701d; stroke:none;" d="M13 300L14 301L13 300M286 300L287 301L286 300z"/>
<path style="fill:#acacac; stroke:none;" d="M287.667 300.333L288.333 300.667L287.667 300.333M377 300L378 301L377 300z"/>
<path style="fill:#9e701d; stroke:none;" d="M36.3333 301.667L36.6667 302.333L36.3333 301.667M106 301L107 302L106 301M123 301L124 302L123 301M247 301L248 302L247 301M292.667 301.333L293.333 301.667L292.667 301.333z"/>
<path style="fill:#acacac; stroke:none;" d="M294 301L295 302L294 301M375 301L376 302L375 301z"/>
<path style="fill:#9e701d; stroke:none;" d="M486 301L487 302L486 301M246 302L247 303L246 302M297 302L298 303L297 302z"/>
<path style="fill:#acacac; stroke:none;" d="M298 302L299 303L298 302M373 302L374 303L373 302z"/>
<path style="fill:#9e701d; stroke:none;" d="M124 303L125 304L124 303M245 303L246 304L245 303z"/>
<path style="fill:#acacac; stroke:none;" d="M301 303L302 304L301 303z"/>
<path style="fill:#9e701d; stroke:none;" d="M371 303L372 304L371 303M14 304L15 305L14 304M107 304L108 305L107 304z"/>
<path style="fill:#acacac; stroke:none;" d="M304 304L305 305L304 304M368 304L369 305L368 304z"/>
<path style="fill:#9e701d; stroke:none;" d="M369 304L370 305L369 304M37.3333 305.667L37.6667 306.333L37.3333 305.667M306 305L307 306L306 305z"/>
<path style="fill:#acacac; stroke:none;" d="M307 305L308 306L307 305M365 305L366 306L365 305z"/>
<path style="fill:#9e701d; stroke:none;" d="M366 305L367 306L366 305M484 305L483 307L484 305M108 306L109 307L108 306M126 306L127 307L126 306M243 306L244 307L243 306z"/>
<path style="fill:#acacac; stroke:none;" d="M309 306L310 307L309 306M362 306L363 307L362 306z"/>
<path style="fill:#9e701d; stroke:none;" d="M363 306L364 307L363 306M242 307L243 308L242 307M311 307L312 308L311 307z"/>
<path style="fill:#acacac; stroke:none;" d="M358 307L359 308L358 307z"/>
<path style="fill:#9e701d; stroke:none;" d="M359 307L360 308L359 307M15 308L16 309L15 308M38.3333 308.667L38.6667 309.333L38.3333 308.667M109 308L110 309L109 308M241 308L242 309L241 308M313 308L314 309L313 308z"/>
<path style="fill:#acacac; stroke:none;" d="M314 308L315 309L314 308M354 308L355 309L354 308z"/>
<path style="fill:#9e701d; stroke:none;" d="M355 308L356 309L355 308M480 308L481 309L480 308M128 309L129 310L128 309M240 309L241 310L240 309M316 309L317 310L316 309z"/>
<path style="fill:#acacac; stroke:none;" d="M317 309L318 310L317 309M348.667 309.333L349.333 309.667L348.667 309.333z"/>
<path style="fill:#9e701d; stroke:none;" d="M350.667 309.333L351.333 309.667L350.667 309.333M478 309L479 310L478 309M129 310L130 311L129 310M239 310L240 311L239 310M320 310L321 311L320 310z"/>
<path style="fill:#acacac; stroke:none;" d="M321 310L322 311L321 310M340 310L340 311L343 311L340 310z"/>
<path style="fill:#9e701d; stroke:none;" d="M343.667 310.333L344.333 310.667L343.667 310.333M475 310L476 311L475 310M16 311L17 312L16 311M39.3333 311.667L39.6667 312.333L39.3333 311.667M111 311L112 312L111 311M130 311L131 312L130 311M238 311L239 312L238 311M237 312L238 313L237 312M453 312L454 313L453 312M112 313L113 314L112 313M236 313L237 314L236 313M443 313L444 314L443 313M40.3333 314.667L40.6667 315.333L40.3333 314.667M235 314L236 315L235 314M17 315L18 316L17 315M133 315L134 316L133 315M432 315L433 316L432 315M114 316L115 317L114 316M134 316L135 317L134 316M232 316L233 317L232 316M428 316L429 317L428 316M41.3333 317.667L41.6667 318.333L41.3333 317.667M115 317L116 318L115 317M231 317L232 318L231 317M18 318L19 319L18 318M230 318L231 319L230 318M138 319L139 320L138 319M422 319L421 321L422 319M42 320L43 321L42 320M117 320L118 321L117 320M139 320L140 321L139 320M227 320L228 321L227 320M19 321L20 322L19 321M118 321L119 322L118 321M140 321L141 322L140 321M226 321L227 322L226 321M43.3333 322.667L43.6667 323.333L43.3333 322.667M224 322L225 323L224 322M157 354C162.347 363.25 171.498 370.498 179 378C191.169 390.169 202.82 402.82 215 415C220.901 420.901 228.924 432.734 237 435.357C247.001 438.606 265.519 430.227 275 426.997C314.218 413.634 360.314 380.344 375 340C365.201 340.773 354.801 342.306 345 340.535C333.178 338.4 321.872 332.907 310 330.332C304.482 329.135 296.227 322.659 291.09 323.113C286.772 323.496 283.239 331.038 280.7 334C273.354 342.57 264.598 350.011 255 355.935C233.243 369.364 206.502 373.737 182 365.971C172.965 363.108 165.688 357.288 157 354M143 323L144 324L143 323M417 323L418 324L417 323M144 324L145 325L144 324M221 324L222 325L221 324M44 325L45 326L44 325M146 325L147 326L146 325M219 325L220 326L219 325M414 325L415 326L414 325M217 326L218 327L217 326M45 327L46 328L45 327M149 327L150 328L149 327M215 327L216 328L215 327M151 328L152 329L151 328M213 328L214 329L213 328M409 328L410 329L409 328M22 329L23 330L22 329M46.3333 329.667L46.6667 330.333L46.3333 329.667M153 329L154 330L153 329M211 329L212 330L211 329M407 329L408 330L407 329M156 330L157 331L156 330M208 330L209 331L208 330M405 330L406 331L405 330M47.3333 331.667L47.6667 332.333L47.3333 331.667M158.667 331.333L159.333 331.667L158.667 331.333M205.667 331.333L206.333 331.667L205.667 331.333M403 331L404 332L403 331M129 332L130 333L129 332M161.667 332.333L162.333 332.667L161.667 332.333M202.667 332.333L203.333 332.667L202.667 332.333M130 333L131 334L130 333M165.667 333.333L166.333 333.667L165.667 333.333M198.667 333.333L199.333 333.667L198.667 333.333M402 333L403 334L402 333M24 334L25 335L24 334M48 334L49 335L48 334M169 334L169 335L172 335L169 334M192 334L192 335L195 335L192 334M133 335L134 336L133 335M177 335L177 336L187 336L177 335M25 336L26 337L25 336M49 336L50 337L49 336M134 336L135 337L134 336M50 338L51 339L50 338M137 338L138 339L137 338M400 338L401 339L400 338M51.3333 339.667L51.6667 340.333L51.3333 339.667M138 339L139 340L138 339M399 340L400 341L399 340M52.3333 341.667L52.6667 342.333L52.3333 341.667M141 341L142 342L141 341M142 342L143 343L142 342M398 342L399 343L398 342M53 343L54 344L53 343M145 344L146 345L145 344M54 345L55 346L54 345M146 345L147 346L146 345M55 347L56 348L55 347M149 347L150 348L149 347M56 348L57 349L56 348M150 348L151 349L150 348M395 348L396 349L395 348M151 349L152 350L151 349M57 350L58 351L57 350M394 350L395 351L394 350M154 351L155 352L154 351M58 352L59 353L58 352M155 352L156 353L155 352M393 352L394 353L393 352M59 353L60 354L59 353M156 353L157 354L156 353M34 354L35 355L34 354M60 355L61 356L60 355M35 356L36 357L35 356M61 356L62 357L61 356M62 358L63 359L62 358M63 359L64 360L63 359M389 359L390 360L389 359M64 360L65 361L64 360M38 361L39 362L38 361M65 362L66 363L65 362M387 362L388 363L387 362M66 363L67 364L66 363M40 364L41 365L40 364M68 366L69 367L68 366M42 367L43 368L42 367M69 367L70 368L69 367M384 367L385 368L384 367M70 368L71 369L70 368M44 370L45 371L44 370M72 371L73 372L72 371M73 372L74 373L73 372M46 373L47 374L46 373M74 373L75 374L74 373M75 374L76 375L75 374M379 374L380 375L379 374M76 375L77 376L76 375M49 377L50 378L49 377M376 378L377 379L376 378M79 379L80 380L79 379M80 380L81 381L80 380M52 381L54 383L52 381M81 381L82 382L81 381M82 382L83 383L82 382M373 382L372 384L373 382M83 383L84 384L83 383M84 384L85 385L84 384M85 385L86 386L85 385M56 386L59 389L56 386M86 386L87 387L86 386M87 387L88 388L87 387M368 388L366 391L368 388M92 391L93 392L92 391M93 392L94 393L93 392M94 393L95 394L94 393M95 394L96 395L95 394M64 395L73 404L64 395M96 395L97 396L96 395M98 396L99 397L98 396M99 397L100 398L99 397M100 398L101 399L100 398M101 399L102 400L101 399M103 400L104 401L103 400M104 401L105 402L104 401M105 402L106 403L105 402M107 403L108 404L107 403M108 404L109 405L108 404M110 405L111 406L110 405M111 406L112 407L111 406M113 407L114 408L113 407M349 407L347 410L349 407M114 408L115 409L114 408M79 409L81 411L79 409M116 409L117 410L116 409M117 410L118 411L117 410M119 411L120 412L119 411M121 412L122 413L121 412M122 413L123 414L122 413M342 413L341 415L342 413M85 414L87 416L85 414M124 414L125 415L124 414M126 415L127 416L126 415M128 416L129 417L128 416M130 417L131 418L130 417M337 417L338 418L337 417M90 418L91 419L90 418M132 418L133 419L132 418M134 419L135 420L134 419M93 420L94 421L93 420M136 420L137 421L136 420M333 420L334 421L333 420M138 421L139 422L138 421M140.667 422.333L141.333 422.667L140.667 422.333M330 422L331 423L330 422M97 423L98 424L97 423M143 423L144 424L143 423M145.667 424.333L146.333 424.667L145.667 424.333M100 425L101 426L100 425M148 425L149 426L148 425M150.667 426.333L151.333 426.667L150.667 426.333M324 426L325 427L324 426M103 427L104 428L103 427M153.667 427.333L154.333 427.667L153.667 427.333M156.667 428.333L157.333 428.667L156.667 428.333M321 428L322 429L321 428M159.667 429.333L160.333 429.667L159.667 429.333M108 430L109 431L108 430M162 430L162 431L165 431L162 430M166.667 431.333L167.333 431.667L166.667 431.333M316 431L317 432L316 431M170 432L170 433L173 433L170 432M113 433L114 434L113 433M174 433L174 434L177 434L174 433M115 434L116 435L115 434M179 434L179 435L183 435L179 434M117 435L118 436L117 435M185 435L185 436L189 436L185 435M309 435L310 436L309 435M119 436L120 437L119 436M192 436L192 437L199 437L192 436M228 436L228 437L235 437L228 436M307 436L308 437L307 436M203 437L203 438L224 438L203 437M305 437L306 438L305 437M123 438L124 439L123 438M303 438L304 439L303 438M125 439L126 440L125 439M301 439L302 440L301 439M127 440L128 441L127 440M299 440L300 441L299 440M129 441L130 442L129 441M134 443L135 444L134 443M292 443L293 444L292 443M136 444L137 445L136 444M139 445L140 446L139 445M287 445L288 446L287 445M284 446L285 447L284 446M144 447L145 448L144 447M147 448L148 449L147 448M279 448L280 449L279 448M150 449L151 450L150 449M153 450L154 451L153 450M272 450L273 451L272 450M157 451L158 452L157 451M269 451L270 452L269 451M265 452L266 453L265 452M164 453L165 454L164 453M261 453L262 454L261 453M169 454L170 455L169 454M257 454L258 455L257 454M174 455L175 456L174 455M252 455L253 456L252 455M179.667 456.333L180.333 456.667L179.667 456.333M246.667 456.333L247.333 456.667L246.667 456.333M186.667 457.333L187.333 457.667L186.667 457.333M239.667 457.333L240.333 457.667L239.667 457.333M195 458L195 459L198 459L195 458M229 458L229 459L232 459L229 458z"/>
</svg>
