<?xml version="1.0" standalone="no"?>
<!DOCTYPE svg PUBLIC "-//W3C//DTD SVG 20010904//EN"
 "http://www.w3.org/TR/2001/REC-SVG-20010904/DTD/svg10.dtd">
<svg version="1.0" xmlns="http://www.w3.org/2000/svg"
 width="500.000000pt" height="500.000000pt" viewBox="0 0 500.000000 500.000000"
 preserveAspectRatio="xMidYMid meet">

<g transform="translate(0.000000,500.000000) scale(0.100000,-0.100000)"
fill="#000000" stroke="none">
<path d="M1990 4504 c-19 -2 -77 -9 -129 -15 -429 -50 -858 -264 -1181 -588
-386 -388 -591 -885 -592 -1436 -1 -416 110 -792 329 -1125 320 -484 800 -800
1369 -901 168 -30 511 -33 669 -6 584 101 1072 417 1391 898 58 89 163 286
178 334 3 12 29 32 59 47 28 14 73 41 99 61 25 20 59 42 75 50 44 23 185 46
338 55 194 12 269 48 269 128 0 28 -10 44 -54 90 -72 74 -439 349 -544 408
l-82 46 -13 118 c-49 471 -255 907 -585 1236 -380 380 -864 587 -1400 600 -89
2 -177 2 -196 0z m470 -244 c738 -136 1319 -708 1469 -1447 20 -98 27 -163 16
-163 -3 0 -55 22 -117 50 -72 32 -131 67 -167 98 -31 26 -87 73 -126 104 -38
30 -115 97 -170 148 -208 192 -614 500 -717 544 l-67 29 -108 -31 c-186 -53
-173 -55 -283 28 -122 92 -157 110 -233 117 -69 6 -243 -16 -356 -46 -165 -43
-656 -388 -717 -503 -21 -40 -17 -100 12 -194 l25 -85 -32 -36 c-42 -48 -59
-92 -59 -151 0 -35 5 -54 19 -66 11 -10 22 -28 25 -41 3 -12 32 -47 63 -75
l58 -53 1 -141 c1 -152 15 -230 61 -344 65 -164 149 -263 353 -417 116 -88
186 -155 495 -474 197 -205 383 -394 412 -421 l53 -48 -78 -8 c-42 -4 -149 -4
-237 -1 -754 28 -1416 525 -1655 1243 -167 502 -116 1027 142 1487 97 173 249
356 400 484 280 238 622 388 988 433 122 15 399 4 530 -20z m-450 -648 c19
-11 58 -50 86 -87 29 -38 64 -75 79 -83 38 -19 112 -10 271 33 l125 35 52 -27
c68 -34 239 -169 393 -310 68 -61 156 -137 196 -169 40 -32 116 -96 168 -142
177 -158 281 -218 590 -342 85 -34 186 -78 225 -99 74 -38 194 -124 260 -186
39 -37 39 -38 17 -46 -12 -5 -77 -11 -145 -14 -132 -7 -262 -27 -336 -52 -25
-8 -73 -36 -106 -60 -151 -113 -348 -173 -571 -173 -97 0 -109 2 -221 44 -65
24 -140 47 -168 51 -88 12 -146 36 -240 100 -105 72 -148 95 -224 120 l-53 17
4 77 c4 51 17 112 42 183 45 132 47 192 10 266 -68 137 -202 168 -414 97 -123
-41 -217 -60 -263 -51 -41 8 -77 40 -77 69 0 44 -22 101 -50 129 -25 24 -36
28 -87 28 -104 0 -250 -84 -463 -268 l-104 -89 -38 30 c-21 17 -38 37 -38 44
0 28 29 69 74 103 26 19 49 43 52 55 3 12 -11 51 -35 97 -22 42 -43 93 -47
113 -6 32 -3 41 27 72 54 57 165 142 304 234 215 142 260 165 365 188 125 27
132 28 225 30 61 1 89 -4 115 -17z m-423 -704 c4 -7 13 -40 20 -72 8 -40 22
-69 40 -89 36 -38 52 -45 114 -57 69 -13 151 1 306 51 128 42 173 45 246 17
28 -11 77 -89 77 -124 0 -9 -19 -73 -41 -143 -35 -107 -42 -140 -43 -216 -1
-124 9 -141 99 -169 39 -13 80 -28 93 -35 22 -12 22 -12 5 -43 -30 -51 -152
-176 -217 -222 -79 -57 -164 -98 -256 -128 -64 -20 -95 -23 -215 -22 -125 0
-148 3 -213 26 -141 51 -259 140 -335 256 -89 133 -121 246 -121 417 1 118 16
194 60 305 23 59 32 71 102 123 81 61 222 137 253 137 10 0 21 -6 26 -12z"/>
<path d="M1277 2612 c-9 -9 -22 -39 -28 -65 -27 -100 33 -204 124 -214 64 -8
92 2 143 49 69 63 64 72 -80 167 -68 44 -128 81 -133 81 -6 0 -17 -8 -26 -18z"/>
<path d="M1903 2423 c-13 -19 -18 -47 -18 -94 0 -76 16 -106 76 -147 44 -30
107 -24 164 16 50 35 96 100 92 131 -2 22 -17 30 -132 72 -71 27 -138 48 -147
49 -10 0 -26 -12 -35 -27z"/>
</g>
</svg>
